<svg width="22" height="23" viewBox="0 0 22 23" fill="none" xmlns="http://www.w3.org/2000/svg">
<path d="M18.7896 2.17802C18.2358 1.66884 15.9936 0.038594 10.9957 0.0162618C10.9957 0.0162618 5.10446 -0.341053 2.23254 2.29415C0.633555 3.89313 0.0707837 6.22908 0.01272 9.13227C-0.0453437 12.031 -0.121274 17.4666 5.11786 18.9406H5.12233L5.11786 21.1872C5.11786 21.1872 5.0866 22.0983 5.6851 22.2815C6.40866 22.5048 6.83744 21.8125 7.52974 21.0666C7.90939 20.6557 8.43196 20.0572 8.82947 19.5971C12.4116 19.8964 15.1673 19.2086 15.48 19.1058C16.2036 18.8691 20.2993 18.3465 20.9648 12.9109C21.6526 7.31889 20.6298 3.777 18.7896 2.17802ZM19.3971 12.5178C18.8343 17.0557 15.5157 17.3416 14.9038 17.5381C14.6448 17.623 12.224 18.2259 9.17785 18.0249C9.17785 18.0249 6.9089 20.7629 6.20321 21.473C6.09154 21.5847 5.96202 21.6294 5.87715 21.607C5.75656 21.5758 5.72083 21.4328 5.7253 21.2229C5.7253 20.9192 5.74316 17.4845 5.74316 17.4845C5.7387 17.4845 5.7387 17.4845 5.74316 17.4845C1.30799 16.2562 1.56704 11.629 1.61617 9.20819C1.6653 6.78738 2.12088 4.79982 3.47421 3.46435C5.89949 1.26686 10.9064 1.59291 10.9064 1.59291C15.1316 1.61078 17.1549 2.88372 17.6239 3.30803C19.1827 4.64796 19.9777 7.84146 19.3971 12.5178Z" fill="#675DA9"/>
<path d="M13.0548 9.2926C12.9074 9.2926 12.7823 9.17647 12.7734 9.02461C12.7242 8.06433 12.2731 7.59535 11.353 7.54622C11.1967 7.53729 11.0761 7.40329 11.0851 7.24697C11.094 7.09064 11.228 6.97005 11.3843 6.97898C12.5992 7.04598 13.2781 7.74274 13.3406 8.99335C13.3495 9.14967 13.229 9.28366 13.0726 9.28813C13.0637 9.2926 13.0592 9.2926 13.0548 9.2926Z" fill="#675DA9"/>
<path d="M14.5018 9.77601H14.4974C14.341 9.77154 14.216 9.64202 14.2205 9.48569C14.2428 8.52094 13.9659 7.73931 13.3763 7.09615C12.7912 6.45298 11.9828 6.1046 10.9153 6.02867C10.759 6.01527 10.6428 5.88128 10.6562 5.72495C10.6696 5.56862 10.8036 5.4525 10.96 5.4659C12.1659 5.55522 13.1172 5.97507 13.7961 6.7165C14.4795 7.46239 14.81 8.39588 14.7877 9.49909C14.7832 9.65542 14.6537 9.77601 14.5018 9.77601Z" fill="#675DA9"/>
<path d="M15.9847 10.3559C15.8284 10.3559 15.7033 10.2308 15.7033 10.0745C15.6899 8.34599 15.1941 7.02839 14.1847 6.04131C13.1887 5.06762 11.9247 4.57185 10.4374 4.55845C10.2811 4.55845 10.156 4.42892 10.156 4.2726C10.156 4.11627 10.2855 3.99121 10.4374 3.99121C12.0766 4.00461 13.4701 4.55398 14.5733 5.63486C15.681 6.71574 16.2482 8.20753 16.2661 10.0656C16.2706 10.2264 16.1455 10.3559 15.9847 10.3559C15.9892 10.3559 15.9892 10.3559 15.9847 10.3559Z" fill="#675DA9"/>
<path d="M11.42 12.7908C11.42 12.7908 11.8175 12.8265 12.0319 12.563L12.4473 12.0404C12.6483 11.7813 13.1351 11.6161 13.6086 11.8796C13.8721 12.027 14.35 12.3218 14.6448 12.5406C14.9619 12.7729 15.6051 13.3089 15.6095 13.3133C15.9177 13.5724 15.9892 13.952 15.7793 14.3585C15.7793 14.3585 15.7793 14.3629 15.7793 14.3674C15.5649 14.7471 15.2746 15.1044 14.9128 15.4349C14.9083 15.4349 14.9083 15.4394 14.9038 15.4394C14.6046 15.6895 14.3098 15.8324 14.0239 15.8637C13.9882 15.8726 13.948 15.8726 13.8944 15.8726C13.7694 15.8726 13.6443 15.8547 13.5192 15.8145L13.5103 15.8011C13.0637 15.6761 12.3222 15.3634 11.0895 14.6801C10.2855 14.2379 9.62004 13.7868 9.0528 13.3357C8.75355 13.0989 8.44983 12.8354 8.13718 12.5228C8.12825 12.5138 8.11485 12.5004 8.10592 12.4915C8.09698 12.4826 8.08359 12.4692 8.07465 12.4602C8.06572 12.4513 8.05232 12.4379 8.04339 12.429C8.03445 12.42 8.02106 12.4066 8.01212 12.3977C7.70394 12.0851 7.43595 11.7813 7.19923 11.4821C6.74812 10.9193 6.29701 10.2493 5.85483 9.44539C5.17147 8.20818 4.85882 7.46676 4.73376 7.02458L4.72036 7.01564C4.68016 6.89058 4.66229 6.76552 4.66229 6.64046C4.66229 6.58687 4.66229 6.54667 4.67123 6.51094C4.70696 6.22062 4.84988 5.9303 5.09554 5.63105C5.09554 5.62658 5.1 5.62658 5.1 5.62212C5.43052 5.25587 5.78784 4.97002 6.16748 4.75563C6.16748 4.75563 6.17195 4.75563 6.17642 4.75563C6.5784 4.5457 6.95804 4.61717 7.22156 4.92535C7.22156 4.92535 7.762 5.57298 7.99426 5.8901C8.21311 6.18935 8.5079 6.6628 8.65529 6.92632C8.91881 7.39976 8.75355 7.8866 8.4945 8.08759L7.97192 8.50297C7.7084 8.71736 7.74414 9.11487 7.74414 9.11487C7.74414 9.11487 8.51683 12.0538 11.42 12.7908Z" fill="#675DA9"/>
</svg>
