<svg width="46" height="46" viewBox="0 0 46 46" fill="none" xmlns="http://www.w3.org/2000/svg">
<circle cx="23" cy="23" r="22.25" fill="white" stroke="#675DA9" stroke-width="1.5"/>
<path d="M31.7896 14.178C31.2358 13.6688 28.9936 12.0386 23.9957 12.0163C23.9957 12.0163 18.1045 11.6589 15.2325 14.2941C13.6336 15.8931 13.0708 18.2291 13.0127 21.1323C12.9547 24.031 12.8787 29.4666 18.1179 30.9406H18.1223L18.1179 33.1872C18.1179 33.1872 18.0866 34.0983 18.6851 34.2815C19.4087 34.5048 19.8374 33.8125 20.5297 33.0666C20.9094 32.6557 21.432 32.0572 21.8295 31.5971C25.4116 31.8964 28.1673 31.2086 28.48 31.1058C29.2036 30.8691 33.2993 30.3465 33.9648 24.9109C34.6526 19.3189 33.6298 15.777 31.7896 14.178ZM32.3971 24.5178C31.8343 29.0557 28.5157 29.3416 27.9038 29.5381C27.6448 29.623 25.224 30.2259 22.1779 30.0249C22.1779 30.0249 19.9089 32.7629 19.2032 33.473C19.0915 33.5847 18.962 33.6294 18.8772 33.607C18.7566 33.5758 18.7208 33.4328 18.7253 33.2229C18.7253 32.9192 18.7432 29.4845 18.7432 29.4845C18.7387 29.4845 18.7387 29.4845 18.7432 29.4845C14.308 28.2562 14.567 23.629 14.6162 21.2082C14.6653 18.7874 15.1209 16.7998 16.4742 15.4644C18.8995 13.2669 23.9064 13.5929 23.9064 13.5929C28.1316 13.6108 30.1549 14.8837 30.6239 15.308C32.1827 16.648 32.9777 19.8415 32.3971 24.5178Z" fill="#675DA9"/>
<path d="M26.0548 21.2926C25.9074 21.2926 25.7823 21.1765 25.7734 21.0246C25.7242 20.0643 25.2731 19.5954 24.353 19.5462C24.1967 19.5373 24.0761 19.4033 24.0851 19.247C24.094 19.0906 24.228 18.97 24.3843 18.979C25.5992 19.046 26.2781 19.7427 26.3406 20.9933C26.3495 21.1497 26.229 21.2837 26.0726 21.2881C26.0637 21.2926 26.0592 21.2926 26.0548 21.2926Z" fill="#675DA9"/>
<path d="M27.5018 21.776H27.4974C27.341 21.7715 27.216 21.642 27.2205 21.4857C27.2428 20.5209 26.9659 19.7393 26.3763 19.0961C25.7912 18.453 24.9828 18.1046 23.9153 18.0287C23.759 18.0153 23.6428 17.8813 23.6562 17.7249C23.6696 17.5686 23.8036 17.4525 23.96 17.4659C25.1659 17.5552 26.1172 17.9751 26.7961 18.7165C27.4795 19.4624 27.81 20.3959 27.7877 21.4991C27.7832 21.6554 27.6537 21.776 27.5018 21.776Z" fill="#675DA9"/>
<path d="M28.9847 22.3559C28.8284 22.3559 28.7033 22.2308 28.7033 22.0745C28.6899 20.346 28.1941 19.0284 27.1847 18.0413C26.1887 17.0676 24.9247 16.5718 23.4374 16.5584C23.2811 16.5584 23.156 16.4289 23.156 16.2726C23.156 16.1163 23.2855 15.9912 23.4374 15.9912C25.0766 16.0046 26.4701 16.554 27.5733 17.6349C28.681 18.7157 29.2482 20.2075 29.2661 22.0656C29.2706 22.2264 29.1455 22.3559 28.9847 22.3559C28.9892 22.3559 28.9892 22.3559 28.9847 22.3559Z" fill="#675DA9"/>
<path d="M24.42 24.7908C24.42 24.7908 24.8175 24.8265 25.0319 24.563L25.4473 24.0404C25.6483 23.7813 26.1351 23.6161 26.6086 23.8796C26.8721 24.027 27.35 24.3218 27.6448 24.5406C27.9619 24.7729 28.6051 25.3089 28.6095 25.3133C28.9177 25.5724 28.9892 25.952 28.7793 26.3585C28.7793 26.3585 28.7793 26.3629 28.7793 26.3674C28.5649 26.7471 28.2746 27.1044 27.9128 27.4349C27.9083 27.4349 27.9083 27.4394 27.9038 27.4394C27.6046 27.6895 27.3098 27.8324 27.0239 27.8637C26.9882 27.8726 26.948 27.8726 26.8944 27.8726C26.7694 27.8726 26.6443 27.8547 26.5192 27.8145L26.5103 27.8011C26.0637 27.6761 25.3222 27.3634 24.0895 26.6801C23.2855 26.2379 22.62 25.7868 22.0528 25.3357C21.7536 25.0989 21.4498 24.8354 21.1372 24.5228C21.1282 24.5138 21.1149 24.5004 21.1059 24.4915C21.097 24.4826 21.0836 24.4692 21.0747 24.4602C21.0657 24.4513 21.0523 24.4379 21.0434 24.429C21.0345 24.42 21.0211 24.4066 21.0121 24.3977C20.7039 24.0851 20.436 23.7813 20.1992 23.4821C19.7481 22.9193 19.297 22.2493 18.8548 21.4454C18.1715 20.2082 17.8588 19.4668 17.7338 19.0246L17.7204 19.0156C17.6802 18.8906 17.6623 18.7655 17.6623 18.6405C17.6623 18.5869 17.6623 18.5467 17.6712 18.5109C17.707 18.2206 17.8499 17.9303 18.0955 17.631C18.0955 17.6266 18.1 17.6266 18.1 17.6221C18.4305 17.2559 18.7878 16.97 19.1675 16.7556C19.1675 16.7556 19.1719 16.7556 19.1764 16.7556C19.5784 16.5457 19.958 16.6172 20.2216 16.9254C20.2216 16.9254 20.762 17.573 20.9943 17.8901C21.2131 18.1894 21.5079 18.6628 21.6553 18.9263C21.9188 19.3998 21.7536 19.8866 21.4945 20.0876L20.9719 20.503C20.7084 20.7174 20.7441 21.1149 20.7441 21.1149C20.7441 21.1149 21.5168 24.0538 24.42 24.7908Z" fill="#675DA9"/>
</svg>
