<svg width="46" height="46" viewBox="0 0 46 46" fill="none" xmlns="http://www.w3.org/2000/svg">
<circle cx="23" cy="23" r="22.25" fill="white" stroke="#0DC143" stroke-width="1.5"/>
<path d="M30.9673 15.0649C29.0218 13.0784 26.3324 12 23.5858 12C17.7493 12 13.0572 16.7108 13.1144 22.4432C13.1144 24.2595 13.6294 26.0189 14.4877 27.6081L13 33L18.5504 31.5811C20.0954 32.4324 21.812 32.8297 23.5286 32.8297C29.3079 32.8297 34 28.1189 34 22.3865C34 19.6054 32.9128 16.9946 30.9673 15.0649ZM23.5858 31.0703C22.0409 31.0703 20.4959 30.673 19.1798 29.8784L18.8365 29.7081L15.5177 30.5595L16.376 27.3243L16.1471 26.9838C13.6294 22.9541 14.8311 17.6189 18.951 15.1216C23.0708 12.6243 28.3924 13.8162 30.9101 17.9027C33.4278 21.9892 32.2262 27.2676 28.1063 29.7649C26.7902 30.6162 25.188 31.0703 23.5858 31.0703ZM28.6213 24.7703L27.9918 24.4865C27.9918 24.4865 27.0763 24.0892 26.5041 23.8054C26.4469 23.8054 26.3896 23.7486 26.3324 23.7486C26.1608 23.7486 26.0463 23.8054 25.9319 23.8622C25.9319 23.8622 25.8747 23.9189 25.0736 24.827C25.0163 24.9405 24.9019 24.9973 24.7875 24.9973H24.7302C24.673 24.9973 24.5586 24.9405 24.5014 24.8838L24.2153 24.7703C23.5858 24.4865 23.0136 24.1459 22.5559 23.6919C22.4414 23.5784 22.2698 23.4649 22.1553 23.3514C21.7548 22.9541 21.3542 22.5 21.0681 21.9892L21.0109 21.8757C20.9537 21.8189 20.9537 21.7622 20.8965 21.6486C20.8965 21.5351 20.8965 21.4216 20.9537 21.3649C20.9537 21.3649 21.1826 21.0811 21.3542 20.9108C21.4687 20.7973 21.5259 20.627 21.6403 20.5135C21.7548 20.3432 21.812 20.1162 21.7548 19.9459C21.6975 19.6622 21.0109 18.1297 20.8392 17.7892C20.7248 17.6189 20.6104 17.5622 20.4387 17.5054H20.267C20.1526 17.5054 19.9809 17.5054 19.8093 17.5054C19.6948 17.5054 19.5804 17.5622 19.4659 17.5622L19.4087 17.6189C19.2943 17.6757 19.1798 17.7892 19.0654 17.8459C18.951 17.9595 18.8937 18.073 18.7793 18.1865C18.3787 18.6973 18.1499 19.3216 18.1499 19.9459C18.1499 20.4 18.2643 20.8541 18.436 21.2514L18.4932 21.4216C19.0082 22.5 19.6948 23.4649 20.6104 24.3162L20.8392 24.5432C21.0109 24.7135 21.1826 24.827 21.297 24.9973C22.4986 26.0189 23.8719 26.7568 25.4169 27.1541C25.5886 27.2108 25.8174 27.2108 25.9891 27.2676C26.1608 27.2676 26.3896 27.2676 26.5613 27.2676C26.8474 27.2676 27.1907 27.1541 27.4196 27.0405C27.5913 26.927 27.7057 26.927 27.8202 26.8135L27.9346 26.7C28.049 26.5865 28.1635 26.5297 28.2779 26.4162C28.3924 26.3027 28.5068 26.1892 28.564 26.0757C28.6785 25.8486 28.7357 25.5649 28.7929 25.2811C28.7929 25.1676 28.7929 24.9973 28.7929 24.8838C28.7929 24.8838 28.7357 24.827 28.6213 24.7703Z" fill="#0DC143"/>
</svg>
