<svg width="73" height="28" viewBox="0 0 73 28" fill="none" xmlns="http://www.w3.org/2000/svg">
<path d="M46.23 12.555C46.69 12.795 47.05 13.125 47.31 13.545C47.57 13.965 47.7 14.45 47.7 15C47.7 15.86 47.395 16.575 46.785 17.145C46.175 17.715 45.43 18 44.55 18H40.05V7.5H44.22C45.08 7.5 45.805 7.78 46.395 8.34C46.995 8.89 47.295 9.58 47.295 10.41C47.295 11.32 46.94 12.035 46.23 12.555ZM44.22 9.12H41.775V11.88H44.22C44.6 11.88 44.92 11.75 45.18 11.49C45.44 11.22 45.57 10.89 45.57 10.5C45.57 10.11 45.44 9.785 45.18 9.525C44.92 9.255 44.6 9.12 44.22 9.12ZM44.55 16.38C44.95 16.38 45.285 16.24 45.555 15.96C45.835 15.67 45.975 15.32 45.975 14.91C45.975 14.5 45.835 14.155 45.555 13.875C45.285 13.585 44.95 13.44 44.55 13.44H41.775V16.38H44.55ZM55.5123 18H53.6373L51.7773 15.435L49.9023 18H48.0123L50.8323 14.145L48.1623 10.5H50.0373L51.7623 12.87L53.4873 10.5H55.3773L52.7073 14.16L55.5123 18ZM59.5983 18.195C58.4983 18.195 57.5633 17.815 56.7933 17.055C56.0233 16.295 55.6383 15.36 55.6383 14.25C55.6383 13.14 56.0233 12.205 56.7933 11.445C57.5633 10.685 58.4983 10.305 59.5983 10.305C60.7083 10.305 61.6433 10.685 62.4033 11.445C63.1733 12.205 63.5583 13.14 63.5583 14.25C63.5583 15.36 63.1733 16.295 62.4033 17.055C61.6433 17.815 60.7083 18.195 59.5983 18.195ZM57.9333 15.945C58.3833 16.395 58.9383 16.62 59.5983 16.62C60.2583 16.62 60.8133 16.395 61.2633 15.945C61.7133 15.495 61.9383 14.93 61.9383 14.25C61.9383 13.57 61.7133 13.005 61.2633 12.555C60.8133 12.105 60.2583 11.88 59.5983 11.88C58.9383 11.88 58.3833 12.105 57.9333 12.555C57.4833 13.005 57.2583 13.57 57.2583 14.25C57.2583 14.93 57.4833 15.495 57.9333 15.945ZM71.3302 16.47H72.3352V20.01H70.7452V18H65.6002V20.01H64.0102V16.47H64.9252C65.3852 15.82 65.6152 14.915 65.6152 13.755V10.5H71.3302V16.47ZM66.7102 16.47H69.7402V11.985H67.2052V13.755C67.2052 14.825 67.0402 15.73 66.7102 16.47Z" fill="#1F2428"/>
<path d="M14 17.5C17.866 17.5 21 14.366 21 10.5C21 6.63401 17.866 3.5 14 3.5C10.134 3.5 7 6.63401 7 10.5C7 14.366 10.134 17.5 14 17.5Z" stroke="black" stroke-width="1.5" stroke-linecap="round" stroke-linejoin="round"/>
<path d="M3.3894 23.624C4.46517 21.7619 6.01201 20.2158 7.87453 19.1408C9.73704 18.0659 11.8496 17.5 14.0001 17.5C16.1506 17.5 18.2632 18.066 20.1257 19.141C21.9881 20.2159 23.535 21.7621 24.6107 23.6242" stroke="black" stroke-width="1.5" stroke-linecap="round" stroke-linejoin="round"/>
</svg>
